:SAMPLES-PER-SECOND 30
:FULLY-SPECIFIED
:DEGREES
1
root  81.6956 39.4203 0.677999 -131.333 -87.5417 129.217
RightUpLeg  0.230198 -8.07941 -5.48701
RightLeg  5.44798 8.38193 -0.44337
RightFoot  -3.99237 -0.148 1.95506
RightToes  -2.32831e-009 0 -3.6325e-017
Spine  0.433335 1.0173 2.36577
Spine1  5.98762 1.35699 -1.28124
HEad  -10.5679 -4.97777 -4.66889
LeftShoulder1  -0.497886 4.82386 -31.5736
LeftArm  10.2138 12.7372 -39.4687
LeftForeArm  17.4323 -19.4315 -5.38267
LeftHand  -0.145476 10.9055 -1.73025
RightShoulder  -0.797406 -5.76928 28.5762
RightArm  16.1954 1.1177 48.6596
RightForeArm  17.7535 9.85604 7.48294
RightHand  -0.0752985 5.58048 -1.11537
LeftUpLeg  2.77908 7.27752 3.67223
LeftLeg  0.565065 6.74585 0.1657
LeftFoot  -0.235283 0.23472 -2.4001
LeftToes  8.91272e-011 -1.70619e-011 7.36378e-012
2
root  81.6924 39.4159 0.681242 -135.606 -87.4819 133.626
RightUpLeg  0.041391 -8.0015 -5.35477
RightLeg  5.47624 8.42034 -0.443207
RightFoot  -3.99649 -0.144136 1.89512
RightToes  -2.32831e-009 0 -3.6325e-017
Spine  0.219706 1.04478 2.57671
Spine1  6.15007 1.42651 -1.4871
HEad  -10.5382 -5.03816 -4.64374
LeftShoulder1  -0.498511 4.82963 -31.4582
LeftArm  9.86789 12.7277 -39.5266
LeftForeArm  17.6791 -19.3465 -5.40019
LeftHand  -0.151316 10.871 -1.88135
RightShoulder  -0.820535 -5.83206 28.6298
RightArm  16.2119 1.25278 48.7179
RightForeArm  17.6619 9.77896 7.52607
RightHand  -0.100263 5.82098 -1.36486
LeftUpLeg  2.63334 7.37075 3.77583
LeftLeg  0.637517 6.82546 0.109998
LeftFoot  -0.305624 0.212002 -2.17562
LeftToes  8.91272e-011 -1.70619e-011 7.36378e-012
3
root  81.6914 39.4098 0.687394 -138.912 -87.3623 137.032
RightUpLeg  -0.173561 -8.06089 -5.35142
RightLeg  5.63824 8.61821 -0.321085
RightFoot  -4.04758 -0.137991 1.79977
RightToes  -2.32831e-009 0 -3.6325e-017
Spine  0.0868667 1.06813 2.6804
Spine1  6.28426 1.48707 -1.65108
HEad  -10.6388 -4.94664 -4.45608
LeftShoulder1  -0.50716 4.86115 -31.2186
LeftArm  9.5297 12.7755 -39.6819
LeftForeArm  17.849 -19.2921 -5.40653
LeftHand  -0.178489 12.1827 -1.81573
RightShoulder  -0.84418 -5.88695 28.8205
RightArm  16.1968 1.41229 48.656
RightForeArm  17.4055 9.6702 7.56505
RightHand  -0.125169 6.16442 -1.58895
LeftUpLeg  2.42447 7.47613 3.86194
LeftLeg  0.939688 6.85971 0.0252991
LeftFoot  -0.51332 0.228012 -2.38381
LeftToes  8.91272e-011 -1.70619e-011 7.36378e-012
4
root  81.6966 39.4045 0.686587 -137.964 -87.3365 136.201
RightUpLeg  -0.391728 -8.22916 -5.49299
RightLeg  5.86733 8.82121 -0.0751497
RightFoot  -4.21977 -0.126624 1.6234
RightToes  -2.32831e-009 0 -3.6325e-017
Spine  0.0257157 1.04185 2.56028
Spine1  6.29007 1.44823 -1.63388
HEad  -10.698 -5.1628 -4.5
LeftShoulder1  -0.497407 4.83427 -31.2418
LeftArm  9.35731 12.7068 -39.6092
LeftForeArm  18.0584 -19.2091 -5.43436
LeftHand  -0.227272 12.8947 -2.33874
RightShoulder  -0.841996 -5.87883 28.8482
RightArm  16.23 1.45016 48.6462
RightForeArm  16.9647 9.54942 7.62826
RightHand  -0.164841 6.35501 -1.96829
LeftUpLeg  2.17848 7.57248 3.86789
LeftLeg  1.19874 6.82712 -0.0704239
LeftFoot  -0.601995 0.229237 -2.417
LeftToes  8.91272e-011 -1.70619e-011 7.36378e-012
5
root  81.7031 39.3843 0.668655 -138.655 -87.2907 136.96
RightUpLeg  -0.697274 -8.01305 -5.4037
RightLeg  6.31874 8.62851 -0.106826
RightFoot  -4.6305 -0.136176 1.78227
RightToes  -2.32831e-009 0 -3.6325e-017
Spine  -0.197222 1.09262 2.27581
Spine1  6.70024 1.43241 -1.37421
HEad  -11.0032 -5.15464 -4.49692
LeftShoulder1  -0.508091 4.86013 -31.3163
LeftArm  9.16581 12.3633 -39.641
LeftForeArm  18.259 -18.9947 -5.53696
LeftHand  -0.240043 13.5249 -2.37061
RightShoulder  -0.827825 -5.84172 28.8014
RightArm  16.1372 1.45564 48.6709
RightForeArm  17.3508 9.62896 7.55125
RightHand  -0.0778268 6.11181 -1.11057
LeftUpLeg  1.97805 7.85881 4.04446
LeftLeg  1.50365 6.55029 -0.307839
LeftFoot  -0.810873 0.210983 -2.1655
LeftToes  8.91272e-011 -1.70619e-011 7.36378e-012
6
root  81.7274 39.3578 0.637354 -136.741 -87.3004 135.023
RightUpLeg  -1.10072 -7.79157 -5.38606
RightLeg  7.157 8.3212 -0.0416591
RightFoot  -5.0728 -0.125665 1.66741
RightToes  -2.32831e-009 0 -3.6325e-017
Spine  0.363656 0.952135 2.07292
Spine1  6.30949 1.29103 -1.40234
HEad  -10.9022 -4.66713 -4.59903
LeftShoulder1  -0.521444 4.89501 -31.3361
LeftArm  7.82798 12.2016 -39.3267
LeftForeArm  19.0986 -18.391 -5.74311
LeftHand  -0.238488 10.5869 -3.74303
RightShoulder  -0.834463 -5.8444 29.0073
RightArm  16.3261 1.45715 48.6383
RightForeArm  17.841 9.7347 7.54745
RightHand  -0.0190703 5.74113 -0.520247
LeftUpLeg  1.80468 7.97975 4.10199
LeftLeg  1.82347 6.35879 -0.399602
LeftFoot  -0.99496 0.210515 -2.19759
LeftToes  8.91272e-011 -1.70619e-011 7.36378e-012
7
root  81.6991 39.3275 0.598523 -134.132 -87.0823 132.224
RightUpLeg  -1.4233 -7.21702 -5.48004
RightLeg  8.29193 7.85202 -0.143804
RightFoot  -5.66026 -0.116116 1.59198
RightToes  -2.32831e-009 0 -3.6325e-017
Spine  1.96118 0.794718 2.36187
Spine1  4.33275 1.35803 -2.5093
HEad  -10.2231 -4.33459 -4.38391
LeftShoulder1  -0.515231 4.88368 -31.1947
LeftArm  8.53115 12.6817 -38.661
LeftForeArm  19.1179 -18.418 -5.78677
LeftHand  -0.269974 11.677 -3.88646
RightShoulder  -0.955648 -6.09672 30.2928
RightArm  17.3755 1.13548 47.6358
RightForeArm  16.7984 9.80153 7.83043
RightHand  -0.144157 5.98086 -1.80918
LeftUpLeg  1.97588 8.0198 3.97339
LeftLeg  2.04852 6.37019 -0.445475
LeftFoot  -1.11989 0.210607 -2.23416
LeftToes  8.91272e-011 -1.70619e-011 7.36378e-012
